<svg width="21" height="20" viewBox="0 0 21 20" fill="none" xmlns="http://www.w3.org/2000/svg">
<path d="M18.1 7.22006C16.29 7.22006 15.55 5.94006 16.45 4.37006C16.97 3.46006 16.66 2.30006 15.75 1.78006L14.02 0.790059C13.23 0.320059 12.21 0.600057 11.74 1.39006L11.63 1.58006C10.73 3.15006 9.24997 3.15006 8.33997 1.58006L8.22998 1.39006C7.77998 0.600057 6.75997 0.320059 5.96997 0.790059L4.23999 1.78006C3.32999 2.30006 3.02004 3.47006 3.54004 4.38006C4.45004 5.94006 3.71002 7.22006 1.90002 7.22006C0.860024 7.22006 0 8.07006 0 9.12006V10.8801C0 11.9201 0.850024 12.7801 1.90002 12.7801C3.71002 12.7801 4.45004 14.0601 3.54004 15.6301C3.02004 16.5401 3.32999 17.7001 4.23999 18.2201L5.96997 19.2101C6.75997 19.6801 7.78 19.4001 8.25 18.6101L8.35999 18.4201C9.25999 16.8501 10.74 16.8501 11.65 18.4201L11.76 18.6101C12.23 19.4001 13.25 19.6801 14.04 19.2101L15.77 18.2201C16.68 17.7001 16.99 16.5301 16.47 15.6301C15.56 14.0601 16.3 12.7801 18.11 12.7801C19.15 12.7801 20.01 11.9301 20.01 10.8801V9.12006C20 8.08006 19.15 7.22006 18.1 7.22006ZM10 13.2501C8.21 13.2501 6.75 11.7901 6.75 10.0001C6.75 8.21006 8.21 6.75006 10 6.75006C11.79 6.75006 13.25 8.21006 13.25 10.0001C13.25 11.7901 11.79 13.2501 10 13.2501Z" fill="#596780"/>
</svg>
